<?xml version="1.0" encoding="UTF-8" standalone="no"?>
<!-- Created with Inkscape (http://www.inkscape.org/) -->

<svg
   width="86.019302mm"
   height="107.41342mm"
   viewBox="0 0 86.019303 107.41342"
   version="1.1"
   id="svg1"
   xml:space="preserve"
   sodipodi:docname="papel.svg"
   inkscape:version="1.3 (0e150ed6c4, 2023-07-21)"
   xmlns:inkscape="http://www.inkscape.org/namespaces/inkscape"
   xmlns:sodipodi="http://sodipodi.sourceforge.net/DTD/sodipodi-0.dtd"
   xmlns="http://www.w3.org/2000/svg"
   xmlns:svg="http://www.w3.org/2000/svg"><sodipodi:namedview
     id="namedview1"
     pagecolor="#ffffff"
     bordercolor="#000000"
     borderopacity="0.25"
     inkscape:showpageshadow="2"
     inkscape:pageopacity="0.0"
     inkscape:pagecheckerboard="0"
     inkscape:deskcolor="#d1d1d1"
     inkscape:document-units="mm"
     inkscape:zoom="1"
     inkscape:cx="508"
     inkscape:cy="287.5"
     inkscape:window-width="2880"
     inkscape:window-height="1514"
     inkscape:window-x="2869"
     inkscape:window-y="-11"
     inkscape:window-maximized="1"
     inkscape:current-layer="layer1" /><defs
     id="defs1" /><g
     inkscape:label="Capa 1"
     inkscape:groupmode="layer"
     id="layer1"
     transform="translate(-66.310497,-34.577807)"><g
       id="g16"
       transform="rotate(-4.9694765,305.07573,-615.97848)"><path
         style="opacity:1;fill:#ffffff;fill-opacity:1;fill-rule:evenodd;stroke:#000500;stroke-width:1.6;stroke-linecap:round;stroke-linejoin:round;stroke-dasharray:none;stroke-opacity:1;paint-order:fill markers stroke"
         d="M 70.352726,70.914423 C 68.541784,59.741782 72.480675,43.274095 69.808891,36.025386 68.191854,31.638268 63.154993,25.98155 58.791101,30.472139 c -6.978207,7.180806 -2.402525,22.611632 -2.293604,32.25085 l 3.697848,4.353163 z"
         id="path15"
         sodipodi:nodetypes="cssccc" /><path
         style="opacity:1;fill:#ffffff;fill-opacity:1;fill-rule:evenodd;stroke:#000500;stroke-width:1.6;stroke-linecap:round;stroke-linejoin:round;stroke-dasharray:none;stroke-opacity:1;paint-order:fill markers stroke"
         d="m 46.205362,64.80666 5.692923,1.787313 6.487287,-0.529574 c 0.588276,-10.946594 0.496371,-20.896792 -1.742461,-30.159944 -1.797,-9.326054 -5.824535,-10.070935 -8.220679,-9.512605 -1.518707,0.353877 -4.467845,1.271645 -4.583717,4.426489 -0.128883,3.509106 2.35117,11.994445 2.366647,33.988321 z"
         id="path16"
         sodipodi:nodetypes="ccccssc" /><g
         id="g15"><path
           style="opacity:1;fill:#ffffff;fill-opacity:1;fill-rule:evenodd;stroke:none;stroke-width:1.6;stroke-linecap:round;stroke-linejoin:round;stroke-dasharray:none;stroke-opacity:1;paint-order:fill markers stroke"
           d="m 40.578635,71.360143 c -0.496478,0.165491 -6.710487,5.350531 -6.710487,5.350531 l -1.144781,4.827138 14.574242,10.210942 8.870368,1.323936 -1.787313,-8.936567 z"
           id="path14" /><g
           id="g14"><g
             id="g13"><g
               id="g12"><g
                 id="g11"><g
                   id="g10"><g
                     id="g8"><path
                       style="opacity:1;fill:#ffffff;fill-opacity:1;fill-rule:evenodd;stroke:#000500;stroke-width:1.6;stroke-linecap:round;stroke-linejoin:round;stroke-dasharray:none;stroke-opacity:1;paint-order:fill markers stroke"
                       d="m 59.071948,108.96949 c 20.39203,-0.6513 21.300771,-21.989295 21.156224,-37.166144 l 1.759545,-5.405557 c 1.76593,-4.001059 2.071253,-8.119091 2.217127,-12.424943 0.07719,-2.71417 -0.04772,-5.075395 -0.618943,-6.661084 -1.540549,-4.27653 -6.523037,-6.665205 -9.353801,2.136185 -1.35981,5.557538 -2.843654,10.42458 -3.987275,16.038716 C 60.6208,60.949498 51.166274,60.241568 40.910361,63.284687 l -0.280848,2.199986 6.295702,1.099992 c -0.210669,-7.531248 -1.748339,-17.828464 -7.722994,-25.253002 -3.144972,-3.793609 -6.359042,-6.735001 -10.02634,-4.086591 -1.809352,1.185128 -2.543123,4.289431 0.640937,14.384372 4.725484,11.453753 6.216448,23.870005 1.619506,32.995804 l 9.567654,9.459235 12.731829,6.178677 -2.246794,-10.76588 C 47.080831,81.003151 41.119124,77.236493 32.232588,77.122571 30.704669,70.056708 27.751447,64.520116 22.144826,61.98199 17.620414,59.643555 9.2981699,61.306876 12.919057,68.714443 c 13.347986,13.945565 7.167259,20.202435 15.071499,31.157923 4.240885,6.475334 8.204399,6.901104 15.166599,8.909894 l 4.587203,0.0936 -3.276574,-5.1489 c -3.24129,0.49603 -15.031413,4.16513 -9.940754,9.3121 1.663379,1.68178 5.143304,2.33237 7.429811,2.54393 7.503191,0.69422 15.160301,1.37253 20.897614,0.22776 4.617191,-0.92128 7.381332,-5.83384 4.933936,-8.46021 l -2.555113,-3.70201 -6.5358,1.48266 z"
                       id="path7"
                       sodipodi:nodetypes="cccsssccccccccccccccscccssscccc" /><path
                       style="opacity:1;fill:#ffffff;fill-opacity:1;fill-rule:evenodd;stroke:none;stroke-width:1.6;stroke-linecap:round;stroke-linejoin:round;stroke-dasharray:none;stroke-opacity:1;paint-order:fill markers stroke"
                       d="m 42.432144,61.430624 -0.62887,2.44928 4.095928,-0.992952 1.80386,-0.256511 0.413732,4.592402 -1.365309,0.513024 -6.090105,-0.264787 -2.250691,-1.754214 1.174994,-2.349987 0.413728,-1.274288 z"
                       id="path8" /></g></g><path
                   style="opacity:1;fill:#ffffff;fill-opacity:1;fill-rule:evenodd;stroke:none;stroke-width:1.6;stroke-linecap:round;stroke-linejoin:round;stroke-dasharray:none;stroke-opacity:1;paint-order:fill markers stroke"
                   d="m 67.885262,106.07415 -1.489316,0.67385 c -2.123229,0.7417 -4.267449,1.4006 -6.586038,1.37171 -1.471466,-0.0153 -1.435883,0.22409 -1.566868,0.88283 l -0.912058,-4.75323 5.162479,-1.31546 2.420461,-0.73667 1.91181,0.98807 z"
                   id="path9"
                   sodipodi:nodetypes="ccccccccc" /></g></g><path
               style="opacity:1;fill:#ffffff;fill-opacity:1;fill-rule:evenodd;stroke:none;stroke-width:1.6;stroke-linecap:round;stroke-linejoin:round;stroke-dasharray:none;stroke-opacity:1;paint-order:fill markers stroke"
               d="m 32.75989,77.935655 c 0.51665,0.0099 1.629424,0.08046 1.700896,0.09877 L 50.71682,89.723192 c 0,0 0.370869,0.837936 1.174273,0.502015 0.570082,-0.238364 0.374414,-0.926354 0.374414,-0.926354 L 52.448589,88.32708 55.9358,101.38656 45.02949,100.42699 30.448734,88.350478 c 0,0 -1.848924,-4.516991 -1.825519,-4.634011 0.02341,-0.117019 4.136675,-5.780812 4.136675,-5.780812 z"
               id="path11"
               sodipodi:nodetypes="cccscccccsc" /></g><path
             style="opacity:1;fill:#ffffff;fill-opacity:1;fill-rule:evenodd;stroke:none;stroke-width:1.6;stroke-linecap:round;stroke-linejoin:round;stroke-dasharray:none;stroke-opacity:1;paint-order:fill markers stroke"
             d="m 36.176548,105.8404 2.167945,0.73643 4.956485,1.42324 c 0.324175,0.056 0.595789,0.23424 0.763487,0.45006 0.152667,0.19648 0.208524,0.4111 0.160882,0.61885 -0.03925,0.17115 -0.167315,0.31128 -0.341459,0.40114 -0.23337,0.12043 -0.572937,0.15686 -1.010107,0.0883 l 5.104625,1.23662 2.925511,-2.22339 -3.534018,-6.13187 -7.091442,-0.98298 -3.955293,2.76169 z"
             id="path10"
             sodipodi:nodetypes="cccsasccccccc" /></g></g></g><g
       id="g30"
       transform="rotate(-79.308889,458.46825,160.58517)"><g
         id="g28"
         style="opacity:1"
         transform="translate(244.475,9.3927084)"><rect
           style="opacity:1;fill:#ffffff;fill-opacity:1;fill-rule:evenodd;stroke:none;stroke-width:1.6;stroke-linecap:round;stroke-linejoin:round;stroke-dasharray:none;stroke-opacity:1;paint-order:fill markers stroke"
           id="rect27"
           width="28.459383"
           height="23.450909"
           x="95.816391"
           y="168.9776"
           rx="17.763069"
           ry="15.605392" /><g
           id="g27"
           style="opacity:1"><path
             style="opacity:1;fill:#ffffff;fill-opacity:1;fill-rule:evenodd;stroke:#180500;stroke-width:1.6;stroke-linecap:round;stroke-linejoin:round;stroke-dasharray:none;stroke-opacity:1;paint-order:fill markers stroke"
             d="m 110.87963,156.35682 c -2.06045,-3.77748 -12.275957,-23.80959 1.02605,-26.8759 6.15181,-0.24227 6.29569,6.84813 7.17797,11.1444 1.7106,8.0942 5.44652,15.44934 9.8346,22.61597 0,0 -4.36899,4.0049 -4.76617,4.0049 -7.14796,0 -8.95722,-1.35324 -13.27245,-10.88937 z"
             id="path27"
             sodipodi:nodetypes="ccscsc" /><g
             id="g26"><g
               id="g25"><g
                 id="g24"><g
                   id="g23"><g
                     id="g21"><g
                       id="g20"><g
                         id="g18"><path
                           style="opacity:1;fill:#ffffff;fill-opacity:1;fill-rule:evenodd;stroke:#180500;stroke-width:1.6;stroke-linecap:round;stroke-linejoin:round;stroke-dasharray:none;stroke-opacity:1;paint-order:fill markers stroke"
                           d="m 135.55655,206.79863 c 18.46285,-5.10999 10.52947,-22.2349 6.17868,-34.2636 -2.70553,-11.34865 -2.34013,-20.08294 -1.87197,-31.50182 0.26959,-4.95595 -2.84931,-12.06996 -9.28087,-7.89543 -6.08769,3.95134 -6.92793,20.75285 -4.7292,24.67254 2.19872,3.91969 3.39108,4.61727 7.50193,6.41688 l 2.10781,-2.17719 c 0,0 1.65816,-1.88457 -0.0936,-1.21701 -3.57538,1.8715 -5.50305,1.53932 -9.08073,1.53724 -3.75119,0.0185 -7.2442,0.81801 -13.35727,2.5018 -0.31494,0.0867 -0.63686,0.17585 -0.96611,0.26731 l 3.65105,1.87233 c 0,0 -0.70791,-3.39843 -1.6851,-4.77444 -1.02947,-1.44962 -2.8673,-2.49782 -4.16405,-3.33342 -2.28653,-1.47337 -4.28605,-2.11684 -5.98137,-2.07213 -4.366197,0.11514 -7.046407,5.06212 -6.611916,8.77574 1.661528,5.4268 4.690866,10.35555 8.891056,13.99629 2.56456,2.29619 3.83027,2.99282 7.28589,2.35376 2.16389,-0.46039 3.73599,-1.88981 2.45214,-5.84133 -1.65889,-5.05466 -3.58597,-6.67939 -7.11485,-10.48504 l -2.33983,-3.76833 8.33186,7.67654 -8.61271,4.30636 -9.736103,-7.20846 c -10.986274,1.16643 -7.983966,10.96184 -6.365915,13.19991 10.589178,18.67698 18.421908,3.05418 8.051009,-5.24252 l -4.774435,-1.59148 4.68082,4.21274 0.842547,5.7106 c -1.045604,10.40641 -0.747874,14.22005 5.897837,22.65517 4.44059,3.98201 11.12366,4.46606 16.38847,4.62425 l -1.40425,-4.39997 c -2.7291,-3.60877 -9.14823,-6.5709 -11.12307,2.56162 -4.86455,7.09189 11.79231,9.2129 21.09015,8.07306 21.41678,-3.21314 16.87907,-12.28969 6.50381,-13.29299 l -6.36592,1.31063 0.0936,3.18296 z"
                           id="path17"
                           sodipodi:nodetypes="cscszccsssccasscsscccccccccccccccccccc" /></g></g><path
                       style="opacity:1;fill:#ffffff;fill-opacity:1;fill-rule:evenodd;stroke:none;stroke-width:1.6;stroke-linecap:round;stroke-linejoin:round;stroke-dasharray:none;stroke-opacity:1;paint-order:fill markers stroke"
                       d="m 115.862,164.90529 c -1.2974,0.33851 -1.82361,1.53356 -3.94359,0.97127 l 0.45538,-1.55562 -0.49684,-0.0883 -2.95427,-2.53369 -2.60956,-1.06489 -1.72019,0.38617 0.47978,2.22339 3.75636,8.23824 c 0,0 2.97933,-1.31149 2.95349,-1.35052 -0.43365,-0.65498 -3.63213,-3.54973 -3.93129,-5.28479 -0.12638,-0.73295 0.54613,-1.13377 1.33176,-0.69213 0.30973,0.17412 0.50907,0.41899 0.71093,0.69699 l 3.23372,4.45333 1.2922,1.85326 c 0,0 3.88784,-1.87612 3.84103,-2.03995 -0.0468,-0.16383 -1.93084,-3.84998 -1.93084,-3.84998 z"
                       id="path19"
                       sodipodi:nodetypes="cccccccccssscccscc" /><path
                       style="opacity:1;fill:#ffffff;fill-opacity:1;fill-rule:evenodd;stroke:none;stroke-width:1.6;stroke-linecap:round;stroke-linejoin:round;stroke-dasharray:none;stroke-opacity:1;paint-order:fill markers stroke"
                       d="m 111.73702,164.34942 c 0.79271,0.64474 2.08958,0.86197 2.09164,-0.55293 l -1.54164,-0.3306 z"
                       id="path20"
                       sodipodi:nodetypes="cccc" /></g><g
                     id="g22"><path
                       style="opacity:1;fill:#ffffff;fill-opacity:1;fill-rule:evenodd;stroke:none;stroke-width:1.6;stroke-linecap:round;stroke-linejoin:round;stroke-dasharray:none;stroke-opacity:1;paint-order:fill markers stroke"
                       d="m 98.224643,166.27133 c 0.389125,1.19418 1.169511,3.01323 1.906407,4.47638 l 5.55017,4.59581 7.09475,-3.84158 c -0.0862,-0.23849 -0.99341,-1.3706 -0.99341,-1.3706 z"
                       id="path18"
                       sodipodi:nodetypes="cccccc" /><path
                       style="opacity:1;fill:#ffffff;fill-opacity:1;fill-rule:evenodd;stroke:none;stroke-width:1.6;stroke-linecap:round;stroke-linejoin:round;stroke-dasharray:none;stroke-opacity:1;paint-order:fill markers stroke"
                       d="m 95.548862,185.97162 c 1.097462,1.06669 2.183367,1.64068 3.633692,1.85663 l 0.840796,-5.19957 -0.513022,-3.50016 -0.637144,-2.44101 -1.282647,-1.41427 c -0.78541,-1.39617 0.521691,-1.41841 0.852329,-1.35466 l -1.414917,-1.18632 -4.294519,-1.175 -1.323935,1.18327 c 0,0 2.482379,5.23782 2.490655,5.27092 0.0083,0.0331 1.679745,5.1468 1.721117,5.15507 0.05011,0.01 -0.0925,2.62421 -0.07241,2.8051 z"
                       id="path21"
                       sodipodi:nodetypes="ccccccccccscc" /></g></g></g><path
                 style="opacity:1;fill:#ffffff;fill-opacity:1;fill-rule:evenodd;stroke:none;stroke-width:1.6;stroke-linecap:round;stroke-linejoin:round;stroke-dasharray:none;stroke-opacity:1;paint-order:fill markers stroke"
                 d="m 130.52253,161.37439 c 0.13258,-0.13921 1.48206,0.062 1.51578,0.73166 0.0608,0.54226 -0.34306,0.88025 -1.19824,0.93141 l -2.53017,0.1513 3.30587,1.66177 c 0,0 4.63378,1.99518 4.56758,1.6013 -0.0662,-0.39387 0.9764,-3.0285 1.0757,-3.17744 0.0993,-0.14895 0.86056,-3.35949 0.86056,-3.35949 l -3.59118,-1.87006 z"
                 id="path23"
                 sodipodi:nodetypes="cccccssccc" /></g><path
               style="opacity:1;fill:#ffffff;fill-opacity:1;fill-rule:evenodd;stroke:none;stroke-width:1.6;stroke-linecap:round;stroke-linejoin:round;stroke-dasharray:none;stroke-opacity:1;paint-order:fill markers stroke"
               d="m 135.07555,206.11738 c 2.26907,-0.61838 4.39397,-1.4727 6.34462,-2.81047 l -6.6104,-2.05211 -7.04996,2.34998 -0.19859,5.47779 7.94361,1.77076 3.55808,-2.78026 -3.00659,-0.57145 c 0,0 -1.15774,0.38604 -1.45,-0.30001 -0.29225,-0.68604 0.46923,-1.08423 0.46923,-1.08423 z"
               id="path25"
               sodipodi:nodetypes="cccccccczc" /><path
               style="opacity:1;fill:#ffffff;fill-opacity:1;fill-rule:evenodd;stroke:none;stroke-width:1.6;stroke-linecap:round;stroke-linejoin:round;stroke-dasharray:none;stroke-opacity:1;paint-order:fill markers stroke"
               d="m 107.83439,206.79863 1.87233,0.84255 5.48826,1.35744 c 0.98809,0.35036 0.987,1.67367 -0.50319,1.56807 0,0 5.86273,1.88403 6.12018,1.7319 0.25744,-0.15212 2.59785,-3.03083 2.52764,-3.13615 -0.0702,-0.10531 -3.01913,-5.80421 -3.01913,-5.80421 0,0 -3.9787,-3.24147 -4.04891,-3.24147 -0.0702,0 -9.78291,2.57445 -9.78291,2.57445 z"
               id="path26"
               sodipodi:nodetypes="ccccsscscc" /></g></g></g><g
         id="g29"
         transform="translate(244.475,9.3927084)"><path
           style="opacity:1;fill:#ffffff;fill-opacity:1;fill-rule:evenodd;stroke:#180500;stroke-width:1.6;stroke-linecap:round;stroke-linejoin:round;stroke-dasharray:none;stroke-opacity:1;paint-order:fill markers stroke"
           d="m 129.74571,202.95936 c 0,0 -4.23659,-1.32393 -4.50138,-1.39013 -5.3779,-2.58032 -2.01429,-12.7269 -0.63448,-13.56338 1.75148,-1.0618 4.86997,0.15476 6.92318,-0.40414 l -2.71407,11.05486 -3.64083,-6.22249 c -5.11613,-4.29711 -8.18611,-5.55402 -10.42863,-6.46398 -4.10075,-1.29273 -6.92881,-5.22695 -2.10814,-8.08256 2.86612,-2.0798 7.64581,-2.06071 17.70012,3.49167 3.1903,0.76903 6.34665,0.28896 9.26755,-1.05915 l -0.0662,8.2084 -6.35489,9.00277 z"
           id="path28"
           sodipodi:nodetypes="csscccscccccc" /><path
           style="opacity:1;fill:#ffffff;fill-opacity:1;fill-rule:evenodd;stroke:none;stroke-width:1.6;stroke-linecap:round;stroke-linejoin:round;stroke-dasharray:none;stroke-opacity:1;paint-order:fill markers stroke"
           d="m 121.25078,188.44983 c 1.5574,0.99748 3.03471,2.20854 4.49978,3.45225 0,0 0.31799,0.46362 -0.18105,0.95374 -0.49904,0.49011 -1.01856,0.0764 -1.01856,0.0764 l -0.98315,-0.78443 -0.22819,1.6382 c 1.25921,2.04749 2.91884,3.58442 2.20367,5.93689 -0.0917,0.30153 0.23506,0.75657 0.57109,1.19512 0.27535,0.35935 0.70043,0.54084 0.29823,1.30983 -0.20986,0.40123 -0.61033,0.13847 -1.02753,0.29259 -0.88488,0.32689 -1.92977,0.76826 -1.95967,1.03913 -0.34272,3.10574 7.79127,2.70713 9.16112,0.0568 -1.1499,-6.39763 12.29302,-11.11749 8.94999,-21.92445 -0.77361,-3.00364 -1.91564,-4.10999 -5.01683,-1.18489 0.52309,-0.009 0.94553,0.0566 1.10071,0.53381 0.13291,0.40875 0.0181,0.65467 -0.2794,0.87713 -0.21124,0.15799 -0.46566,0.18847 -0.7164,0.24575 l -11.74031,2.68187 -3.72125,0.11702 z"
           id="path29"
           sodipodi:nodetypes="cczcccssssscccsscccc" /></g></g></g></svg>
