<?xml version="1.0" encoding="UTF-8" standalone="no"?>
<!-- Created with Inkscape (http://www.inkscape.org/) -->

<svg
   width="94.365891mm"
   height="83.180283mm"
   viewBox="0 0 94.365891 83.180283"
   version="1.1"
   id="svg1"
   xml:space="preserve"
   inkscape:version="1.3 (0e150ed6c4, 2023-07-21)"
   sodipodi:docname="piedra.svg"
   xmlns:inkscape="http://www.inkscape.org/namespaces/inkscape"
   xmlns:sodipodi="http://sodipodi.sourceforge.net/DTD/sodipodi-0.dtd"
   xmlns="http://www.w3.org/2000/svg"
   xmlns:svg="http://www.w3.org/2000/svg"><sodipodi:namedview
     id="namedview1"
     pagecolor="#ffffff"
     bordercolor="#000000"
     borderopacity="0.25"
     inkscape:showpageshadow="2"
     inkscape:pageopacity="0.0"
     inkscape:pagecheckerboard="0"
     inkscape:deskcolor="#d1d1d1"
     inkscape:document-units="mm"
     inkscape:zoom="0.70710678"
     inkscape:cx="811.75858"
     inkscape:cy="299.10617"
     inkscape:window-width="2880"
     inkscape:window-height="1514"
     inkscape:window-x="2869"
     inkscape:window-y="-11"
     inkscape:window-maximized="1"
     inkscape:current-layer="layer1" /><defs
     id="defs1" /><g
     inkscape:label="Capa 1"
     inkscape:groupmode="layer"
     id="layer1"
     transform="translate(-66.018308,-53.207906)"><g
       id="g7"
       transform="rotate(-13.437573,-192.25668,308.86716)"><g
         id="g6"><path
           style="opacity:1;fill:#ffffff;fill-opacity:1;fill-rule:evenodd;stroke:#000500;stroke-width:1.6;stroke-linecap:round;stroke-linejoin:round;stroke-dasharray:none;stroke-opacity:1;paint-order:fill markers stroke"
           d="m 151.55104,148.39373 c -5.77281,-0.24162 -10.76109,-3.21718 -15.95274,-5.48375 -12.8014,-5.15957 -20.19063,5.74221 -7.87741,11.91819 1.00878,0.50597 1.91314,1.23497 2.89218,1.79119 l 1.3294,0.49852 1.99409,11.96456 0.74778,-16.202 -12.79542,-1.08014 c -9.23567,0.0687 -9.25116,8.15472 -2.51259,13.09763 1.92448,1.41165 4.34716,2.60525 7.16547,3.35364 l 4.40362,-3.73893 -10.3859,-2.90805 c -9.84757,5.12025 -8.27473,11.43779 1.66174,15.95275 l 2.74188,1.74483 5.64993,-0.33235 -3.07423,-2.32644 c -2.42113,-0.20323 -9.10146,-2.53369 -9.32108,2.11065 0.0958,13.22278 42.77529,25.87984 53.02476,7.32054 l -0.91377,-3.19965 -5.15141,4.98523 c 0.77681,3.38294 -0.27788,8.28696 6.64698,6.56389 15.47942,-13.00273 19.5351,-33.69413 2.82496,-31.49005 l -5.06831,2.49261 4.32194,6.56434 2.36718,-4.36275 c 5.43104,-14.76812 -29.07698,-39.3068 -40.00709,-23.55499 l -1.82792,3.15731 14.04174,4.56979 z"
           id="path1"
           sodipodi:nodetypes="ccscccccscccccccccccccccccccc" /><path
           style="opacity:1;fill:#ffffff;fill-opacity:1;fill-rule:evenodd;stroke:none;stroke-width:1.6;stroke-linecap:round;stroke-linejoin:round;stroke-dasharray:none;stroke-opacity:1;paint-order:fill markers stroke"
           d="m 175.25167,160.23365 c 1.06217,2.334 0.95166,5.53264 0.22848,7.27014 -0.33781,0.81162 0.0193,1.7797 0.56084,2.5757 l -1.66174,4.36207 -2.80419,-3.01191 -3.57275,-5.46298 0.33235,-2.16026 z"
           id="path3"
           sodipodi:nodetypes="cscccccc" /><path
           style="opacity:1;fill:#ffffff;fill-opacity:1;fill-rule:evenodd;stroke:none;stroke-width:1.6;stroke-linecap:round;stroke-linejoin:round;stroke-dasharray:none;stroke-opacity:1;paint-order:fill markers stroke"
           d="m 135.18566,143.60918 c 12.83772,5.87049 16.05969,6.36038 17.61448,4.65288 l -0.50131,2.00113 -5.69147,4.44517 c -3.18273,1.56487 -6.36414,2.47937 -9.63963,2.37185 -1.89282,-0.0621 -3.81704,-0.46555 -5.7911,-1.28198 -2.3887,-0.98792 -4.83062,-2.5203 -7.30337,-4.77475 l 6.78415,-3.80001 z"
           id="path4"
           sodipodi:nodetypes="ccccssccc" /><path
           style="opacity:1;fill:#ffffff;fill-opacity:1;fill-rule:evenodd;stroke:none;stroke-width:1.6;stroke-linecap:round;stroke-linejoin:round;stroke-dasharray:none;stroke-opacity:1;paint-order:fill markers stroke"
           d="m 128.9631,156.51915 c 1.35705,0.9181 2.32764,1.31534 3.89626,1.56043 l -0.43344,-1.56553 c -0.95959,-0.38936 -1.91837,-0.80027 -2.6355,-1.35127 l 5.83746,1e-5 1.58629,3.67197 c 0,0 -2.20318,11.98531 -2.23256,12.30844 -0.0294,0.32314 -2.73194,0.29376 -2.73194,0.29376 l 0.0881,-2.70257 -6.28642,-1.46879 c -4.3018,-1.1269 -7.15726,-3.50648 -8.69422,-5.34097 l 6.72605,-3.06049 z"
           id="path5"
           sodipodi:nodetypes="ccccccscccccc" /><path
           style="opacity:1;fill:#ffffff;fill-opacity:1;fill-rule:evenodd;stroke:none;stroke-width:1.6;stroke-linecap:round;stroke-linejoin:round;stroke-dasharray:none;stroke-opacity:1;paint-order:fill markers stroke"
           d="m 119.6635,175.33245 c 2.1512,1.00311 3.83926,2.09811 5.61598,3.20524 0.99206,0.83114 0.46671,1.45214 -0.0897,1.56892 l 5.68594,0.71347 c 0,0 3.11274,-1.54467 3.04253,-1.66169 -0.0702,-0.11702 -6.08506,-5.1021 -6.08506,-5.1021 -2.73313,0.40196 -5.81337,-0.0182 -8.1697,1.27616 z"
           id="path6"
           sodipodi:nodetypes="ccccscc" /></g><path
         style="opacity:1;fill:#ffffff;fill-opacity:1;fill-rule:evenodd;stroke:none;stroke-width:1.6;stroke-linecap:round;stroke-linejoin:round;stroke-dasharray:none;stroke-opacity:1;paint-order:fill markers stroke"
         d="m 159.77476,193.08687 1.05752,0.0881 c 5.43496,-1.40736 8.73368,-5.64662 11.6328,-9.63525 0,0 -0.61689,-3.34883 -0.76377,-3.34883 -0.14688,0 -7.07955,4.46511 -7.07955,4.46511 l -3.99511,6.46267 z"
         id="path2"
         sodipodi:nodetypes="cccsccc" /></g></g></svg>
